<?xml version="1.0" encoding="utf-8"?>
<!-- Generator: Adobe Illustrator 19.0.0, SVG Export Plug-In . SVG Version: 6.00 Build 0)  -->
<svg version="1.1" id="layer" xmlns="http://www.w3.org/2000/svg" xmlns:xlink="http://www.w3.org/1999/xlink" x="0px" y="0px"
	 viewBox="-153 -46 652 652" style="enable-background:new -153 -46 652 652;" xml:space="preserve">
<style type="text/css">
	.st0{fill:#8B816E;}
	.st1{fill:#E9EC95;}
	.st2{fill:#EDEFA9;}
	.st3{fill:#E6E980;}
	.st4{fill:#E2E66A;}
	.st5{fill:#DDE354;}
	.st6{fill:#D9E038;}
	.st7{fill:#BDB6A8;}
	.st8{fill:#B2AA9A;}
	.st9{fill:#C9C3B7;}
	.st10{fill:#A59C8B;}
	.st11{fill:#988E7D;}
</style>
<path class="st0" d="M-13.9,522v-84.1c0-16.3-2.8-22.2-11-22.2c-7,0-16.9,7-31.5,22.8l-4.5,4.8V522h-33.8V391.2h33.8v21.7
	c15.7-17.2,28.7-24.2,45.3-24.2c23.6,0,35.4,12.4,35.4,37.1V522H-13.9z M163.3,522v-205h-33.5v79.6c-7.3-5.1-10.4-6.5-17.4-7.9
	c-3.9-1.1-7.9-1.4-11.5-1.4c-34.6,0-62.4,32.6-62.4,73.1c0,37.7,22.8,65.3,53.7,65.3c8.7,0,16.9-2.5,24.5-7.3
	c6.2-3.9,8.4-6.5,13.2-14.1V522H163.3z M129.8,478.4c-8.2,12.7-18.6,19.7-29,19.7c-16,0-27-16.6-27-40.2c0-24.8,13.8-43,32.3-43
	c10.4,0,19.7,5.1,21.9,12.1c0.8,2.8,1.7,9.6,1.7,16.9V478.4z M208.8,367c10.4,0,18.8-10.1,18.8-22.8c0-12.7-8.4-22.8-18.8-22.8
	c-10.4,0-19.1,10.1-19.1,22.8C189.7,356.9,198.4,367,208.8,367 M192,522h33.5V391.2H192V522z M370.3,391.2h-34.9l-27.6,41.1
	L282,391.2h-37.1l44.7,66.7l-45,64.1h34.6l27.3-41.6l25.9,41.6h36.6l-43.6-66.7L370.3,391.2z"/>
<path class="st1" d="M155.7,83.7c-0.5-6.9,3-13.9,5.8-15.4c2.8-1.5,4.7,3.3,6.4,10.7c1.7,7.4,1.2,14-2.8,15.1
	C161,95.1,156.1,90.6,155.7,83.7"/>
<path class="st2" d="M163.2,63.3c-2.3,1.3-3.2-2.6-0.2-8.9c2.9-6.3,8.4-12.8,10.2-14.4c1.9-1.5-0.2,2.6-2.8,9.2
	C167.9,55.9,165.6,62.1,163.2,63.3"/>
<path class="st3" d="M161.6,114.6c-3.8-7.5-1.6-14.8,3.1-16s12.2,4.6,18.4,13c6.2,8.4,6.2,15.3-1,15.7
	C175,127.5,165.3,122,161.6,114.6"/>
<path class="st4" d="M204,165c-12.1,0.1-26.7-5.6-33.1-12.9c-6.4-7.3-4.6-14.7,3.7-16.1c8.2-1.5,23.2,4.3,33.6,13
	C218.6,157.8,216.2,164.9,204,165"/>
<path class="st5" d="M221.9,207.7c-18.6-3-33.7-12.1-37.6-20.2c-3.7-8.1,2.7-14.8,17-15c14.1-0.2,35.6,8,43.9,19.3
	C253.6,203.1,240.5,210.6,221.9,207.7"/>
<path class="st6" d="M165.3,221.4c8.3-10,26.1-14.7,48.3-11.6c21.7,3.2,44.2,17.4,37.6,34.6c-6.7,17.3-43.3,25-66.3,14.6
	C161.8,248.6,157.5,231.2,165.3,221.4"/>
<path class="st7" d="M136.5,99.1c-4,1-7.6-2.9-6.7-9.3c0.9-6.4,5.2-13,8-14.5c2.8-1.5,3.8,2.9,4.2,9.8
	C142.3,91.9,140.5,98.1,136.5,99.1"/>
<path class="st8" d="M145.2,119.7c3.5,7.4,1.3,13.3-6,13.7c-7.1,0.3-14.5-4.2-15.6-10.6c-1.1-6.4,2.9-13,7.7-14.3
	C136.1,107.2,141.7,112.3,145.2,119.7"/>
<path class="st9" d="M142.3,69.4c-2.3,1.3-2.6-2.3,0.8-8.4c3.4-6.1,9-12.4,10.9-13.9c1.9-1.5-0.4,2.5-3.4,8.8
	C147.6,62.2,144.7,68.1,142.3,69.4"/>
<path class="st10" d="M149.9,153c6.1,7.2,0.3,12.8-11.8,12.9c-12.1,0-23.4-4-25.5-9.8c-2.1-5.8,3.1-12.2,11.4-13.6
	C132.3,141,143.9,145.8,149.9,153"/>
<path class="st11" d="M156.5,186.3c3.4,7.9-12.5,11.9-31.1,8.9c-18.6-3-30.9-8.6-29.8-13.2c1.2-4.6,12.4-9.1,26.7-9.4
	C136.4,172.4,153.1,178.5,156.5,186.3"/>
<path class="st0" d="M44.4,191.7c9.8-2,32-1.8,54.1,1.3c21.8,3.1,40,12.5,31.9,21.7c-8.3,9.3-42.2,9-65.3-1.4
	C41.9,202.8,35,193.5,44.4,191.7"/>
<path class="st5" d="M411.5,232.7c-18.6-2.9-39.3-19.1-53.2-34.2c-13.6-15.1-16.8-26.1-2.4-26.4c14-0.2,45.1,12.4,63.4,30.6
	C437.6,221.1,430.1,235.6,411.5,232.7"/>
<path class="st3" d="M264.5,123.2c-7.1,0.3-21.4-7.1-30.4-16.6c-9.1-9.5-10.8-18.3-6-19.5c4.8-1.3,16,6,27.6,16.5
	C267.2,114.1,271.7,122.9,264.5,123.2"/>
<path class="st1" d="M218.7,83.8c-4,1-11.6-4.4-14.7-12.4c-3.2-8-1.4-15.7,1.3-17.2c2.8-1.5,6.4,4,10.9,12.5
	C220.7,75.1,222.8,82.8,218.7,83.8"/>
<path class="st2" d="M201.6,51.2c-2.3,1.3-4.4-3.1-2.4-10c1.9-6.9,7-13.8,8.9-15.3c1.9-1.5,0.1,3-1.4,10.2
	C205.2,43.2,204,49.9,201.6,51.2"/>
<path class="st4" d="M332.4,167.4c-12.1,0.1-33.2-8.6-48.3-19c-15-10.4-20.1-19.7-11.7-21.2c8.2-1.5,30.1,6.3,49.1,18.1
	C340.4,157.1,344.6,167.3,332.4,167.4"/>
<path class="st8" d="M217.7,107.5c8.9,9.5,11.1,17.3,3.9,17.7c-7.1,0.3-19.1-6.1-25.5-14.6c-6.5-8.5-6.2-16.5-1.4-17.8
	C199.5,91.5,208.8,98.1,217.7,107.5"/>
<path class="st9" d="M180.7,57.2c-2.3,1.3-3.8-2.8-1.3-9.4c2.4-6.6,7.7-13.3,9.6-14.8c1.9-1.5-0.1,2.8-2.1,9.7
	C184.9,49.6,183.1,56,180.7,57.2"/>
<path class="st7" d="M178.1,77.6c-1.8-7.4,0.8-14.8,3.6-16.3c2.8-1.5,5.5,3.7,8.6,11.6c3.1,7.9,3.9,15-0.2,16.1
	C186.2,90,179.9,85,178.1,77.6"/>
<path class="st11" d="M276.9,172.3c14.1-0.2,40.3,10.2,53.7,25c13.4,14.8,3,25.9-15.6,22.9c-18.6-3-36.5-15.6-45.4-27.2
	C260.9,181.4,262.5,172.6,276.9,172.3"/>
<path class="st0" d="M325.4,226.5c21.6,3.2,48.6,22.4,43.4,47.6c-5.1,25.3-44.3,41.1-67.3,30.6c-23.2-10.4-24.8-35.9-18.6-53.6
	C289.6,233.1,303.1,223.5,325.4,226.5"/>
<path class="st10" d="M266.5,168.3c-12.1,0-30-7.1-40.7-15.9c-10.7-8.9-12.3-17.2-4-18.6c8.2-1.5,26.7,5.3,41.3,15.6
	C277.8,159.6,278.7,168.3,266.5,168.3"/>
</svg>
